<?xml version="1.0" encoding="UTF-8" standalone="no"?>
<!-- Created with Inkscape (http://www.inkscape.org/) -->

<svg
   xmlns:dc="http://purl.org/dc/elements/1.1/"
   xmlns:cc="http://creativecommons.org/ns#"
   xmlns:rdf="http://www.w3.org/1999/02/22-rdf-syntax-ns#"
   xmlns:svg="http://www.w3.org/2000/svg"
   xmlns="http://www.w3.org/2000/svg"
   xmlns:sodipodi="http://sodipodi.sourceforge.net/DTD/sodipodi-0.dtd"
   xmlns:inkscape="http://www.inkscape.org/namespaces/inkscape"
   width="210mm"
   height="297mm"
   viewBox="0 0 744.09448819 1052.3622047"
   id="svg2"
   version="1.1"
   inkscape:version="0.91 r13725"
   sodipodi:docname="eye.svg">
  <defs
     id="defs4" />
  <sodipodi:namedview
     id="base"
     pagecolor="#ffffff"
     bordercolor="#666666"
     borderopacity="1.0"
     inkscape:pageopacity="0.0"
     inkscape:pageshadow="2"
     inkscape:zoom="7.9195959"
     inkscape:cx="332.83467"
     inkscape:cy="768.80925"
     inkscape:document-units="px"
     inkscape:current-layer="layer2"
     showgrid="true"
     inkscape:window-width="1404"
     inkscape:window-height="855"
     inkscape:window-x="36"
     inkscape:window-y="1"
     inkscape:window-maximized="1">
    <inkscape:grid
       type="xygrid"
       id="grid4136" />
  </sodipodi:namedview>
  <metadata
     id="metadata7">
    <rdf:RDF>
      <cc:Work
         rdf:about="">
        <dc:format>image/svg+xml</dc:format>
        <dc:type
           rdf:resource="http://purl.org/dc/dcmitype/StillImage" />
        <dc:title />
      </cc:Work>
    </rdf:RDF>
  </metadata>
  <g
     inkscape:groupmode="layer"
     id="layer2"
     inkscape:label="Layer 2"
     style="display:none">
    <rect
       style="opacity:1;fill:#e6e6e6;fill-opacity:1;stroke:none;stroke-width:3;stroke-linecap:round;stroke-linejoin:round;stroke-miterlimit:4;stroke-dasharray:none;stroke-dashoffset:0;stroke-opacity:1"
       id="rect4159"
       width="100"
       height="100"
       x="185.05586"
       y="95.699791"
       inkscape:export-xdpi="230.39999"
       inkscape:export-ydpi="230.39999" />
    <rect
       inkscape:export-ydpi="230.39999"
       inkscape:export-xdpi="230.39999"
       y="120.00182"
       x="185.05586"
       height="50"
       width="100"
       id="rect4166"
       style="opacity:1;fill:#cccccc;fill-opacity:1;stroke:none;stroke-width:3;stroke-linecap:round;stroke-linejoin:round;stroke-miterlimit:4;stroke-dasharray:none;stroke-dashoffset:0;stroke-opacity:1" />
    <rect
       inkscape:export-ydpi="230.39999"
       inkscape:export-xdpi="230.39999"
       y="95.699791"
       x="311.12729"
       height="100"
       width="100"
       id="rect4224"
       style="opacity:1;fill:#e6e6e6;fill-opacity:1;stroke:none;stroke-width:3;stroke-linecap:round;stroke-linejoin:round;stroke-miterlimit:4;stroke-dasharray:none;stroke-dashoffset:0;stroke-opacity:1" />
    <rect
       style="opacity:1;fill:#cccccc;fill-opacity:1;stroke:none;stroke-width:3;stroke-linecap:round;stroke-linejoin:round;stroke-miterlimit:4;stroke-dasharray:none;stroke-dashoffset:0;stroke-opacity:1"
       id="rect4226"
       width="100"
       height="50"
       x="311.12729"
       y="120.00182"
       inkscape:export-xdpi="230.39999"
       inkscape:export-ydpi="230.39999" />
    <rect
       inkscape:export-ydpi="230.39999"
       inkscape:export-xdpi="230.39999"
       y="242.12836"
       x="185.05586"
       height="100"
       width="100"
       id="rect4260"
       style="opacity:1;fill:#e6e6e6;fill-opacity:1;stroke:none;stroke-width:3;stroke-linecap:round;stroke-linejoin:round;stroke-miterlimit:4;stroke-dasharray:none;stroke-dashoffset:0;stroke-opacity:1" />
    <rect
       style="opacity:1;fill:#e6e6e6;fill-opacity:1;stroke:none;stroke-width:3;stroke-linecap:round;stroke-linejoin:round;stroke-miterlimit:4;stroke-dasharray:none;stroke-dashoffset:0;stroke-opacity:1"
       id="rect4269"
       width="100"
       height="100"
       x="310.05585"
       y="242.12836"
       inkscape:export-xdpi="230.39999"
       inkscape:export-ydpi="230.39999" />
  </g>
  <g
     inkscape:label="Layer 1"
     inkscape:groupmode="layer"
     id="layer1"
     style="display:inline">
    <path
       style="fill:#666666;fill-rule:evenodd;stroke:none;stroke-width:1px;stroke-linecap:butt;stroke-linejoin:miter;stroke-opacity:1"
       d="m 230.71429,161.82649 c -0.96018,-0.89293 -0.71429,-0.46429 -4.60124,-1.21529 -4.24943,-6.50406 -4.97048,-19.69593 -1.52439,-27.86736 0.44271,-1.04974 5.58037,-1.71625 6.12563,-2.70307 0,0 3.19878,2.3221 3.75,15 0.53571,12.32143 -3.75,16.78572 -3.75,16.78572 z"
       id="path4142"
       inkscape:connector-curvature="0"
       sodipodi:nodetypes="ccscsc" />
    <ellipse
       cx="229.97899"
       cy="145.93362"
       rx="2.6792512"
       ry="8.2346354"
       id="ellipse4146"
       style="opacity:1;fill:#000000;fill-opacity:1;stroke:none;stroke-width:0.5;stroke-linecap:round;stroke-linejoin:round;stroke-miterlimit:4;stroke-dasharray:none;stroke-dashoffset:0;stroke-opacity:1" />
    <ellipse
       style="opacity:1;fill:#ffffff;fill-opacity:1;stroke:none;stroke-width:0.5;stroke-linecap:round;stroke-linejoin:round;stroke-miterlimit:4;stroke-dasharray:none;stroke-dashoffset:0;stroke-opacity:1"
       id="path4144"
       ry="5.3304472"
       rx="2.9949238"
       cy="139.26146"
       cx="230.1684" />
    <path
       style="fill:none;fill-rule:evenodd;stroke:#000000;stroke-width:5;stroke-linecap:round;stroke-linejoin:miter;stroke-miterlimit:4;stroke-dasharray:none;stroke-opacity:1"
       d="M 192.32143,149.32649 C 208.00475,140.60986 226.1913,130.09782 240,127.00506"
       id="path4138"
       inkscape:connector-curvature="0"
       sodipodi:nodetypes="cc" />
    <path
       inkscape:connector-curvature="0"
       id="path4140"
       d="M 196.42857,147.00506 C 210.34781,153.80632 218.25736,160.2666 235,162.3622"
       style="fill:none;fill-rule:evenodd;stroke:#000000;stroke-width:5;stroke-linecap:round;stroke-linejoin:miter;stroke-miterlimit:4;stroke-dasharray:none;stroke-opacity:1"
       sodipodi:nodetypes="cc" />
    <path
       style="fill:#000000;fill-rule:evenodd;stroke:none;stroke-width:1px;stroke-linecap:butt;stroke-linejoin:miter;stroke-opacity:1"
       d="m 245.58058,145.14012 9.23002,3.76777 0,-7.53554 z"
       id="path4148"
       inkscape:connector-curvature="0"
       sodipodi:nodetypes="cccc" />
    <path
       style="fill:#000000;fill-rule:evenodd;stroke:none;stroke-width:1px;stroke-linecap:butt;stroke-linejoin:miter;stroke-opacity:1"
       d="m 254.79186,143.73199 19.62756,0 0,2.81626 -19.61429,0 z"
       id="path4150"
       inkscape:connector-curvature="0"
       sodipodi:nodetypes="ccccc" />
    <path
       sodipodi:nodetypes="ccccc"
       inkscape:connector-curvature="0"
       id="path4152"
       d="m 275.45545,123.61919 0,42.78933 -1.92992,0 0,-42.7604 z"
       style="fill:#000000;fill-rule:evenodd;stroke:#000000;stroke-width:3;stroke-linecap:butt;stroke-linejoin:round;stroke-miterlimit:4;stroke-dasharray:none;stroke-opacity:1" />
    <path
       sodipodi:nodetypes="ccscsc"
       inkscape:connector-curvature="0"
       id="path4228"
       d="m 357.14287,159.86221 c -0.96018,-0.89293 -1.82008,-1.57905 -5.70703,-2.33005 -4.80171,-4.57107 -6.27264,-19.74296 0.55719,-25.35993 0.87993,-0.72366 6.7168,-1.96878 7.26206,-2.9556 0,0 2.6937,-0.9609 3.24492,11.717 0.53571,12.32143 -5.35714,18.92858 -5.35714,18.92858 z"
       style="fill:#666666;fill-rule:evenodd;stroke:none;stroke-width:1px;stroke-linecap:butt;stroke-linejoin:miter;stroke-opacity:1" />
    <ellipse
       style="opacity:1;fill:#000000;fill-opacity:1;stroke:none;stroke-width:0.5;stroke-linecap:round;stroke-linejoin:round;stroke-miterlimit:4;stroke-dasharray:none;stroke-dashoffset:0;stroke-opacity:1"
       id="ellipse4230"
       ry="8.2346354"
       rx="2.6792512"
       cy="142.83662"
       cx="353.21649" />
    <path
       sodipodi:nodetypes="ccc"
       inkscape:connector-curvature="0"
       id="path4234"
       d="m 322.34165,150.68921 c 18.36925,-21.9052 42.90871,-22.82629 52.47978,-27.61272 C 360,134.3622 337,140.29077 322.34165,150.68921 Z"
       style="fill:#000000;fill-rule:evenodd;stroke:#000000;stroke-width:1.70000005;stroke-linecap:round;stroke-linejoin:round;stroke-miterlimit:4;stroke-dasharray:none;stroke-opacity:1" />
    <path
       sodipodi:nodetypes="cc"
       style="fill:none;fill-rule:evenodd;stroke:#000000;stroke-width:5;stroke-linecap:round;stroke-linejoin:miter;stroke-miterlimit:4;stroke-dasharray:none;stroke-opacity:1"
       d="m 328.75,146.82649 c 12.31473,9.2048 16.41289,12.39749 32.32143,15.53571"
       id="path4236"
       inkscape:connector-curvature="0" />
    <path
       sodipodi:nodetypes="cccc"
       inkscape:connector-curvature="0"
       id="path4238"
       d="m 371.65201,145.14012 9.23002,3.76777 0,-7.53554 z"
       style="fill:#000000;fill-rule:evenodd;stroke:none;stroke-width:1px;stroke-linecap:butt;stroke-linejoin:miter;stroke-opacity:1" />
    <path
       sodipodi:nodetypes="ccccc"
       inkscape:connector-curvature="0"
       id="path4240"
       d="m 380.86329,143.73199 19.62756,0 0,2.81626 -19.61429,0 z"
       style="fill:#000000;fill-rule:evenodd;stroke:none;stroke-width:1px;stroke-linecap:butt;stroke-linejoin:miter;stroke-opacity:1" />
    <path
       style="fill:#000000;fill-rule:evenodd;stroke:#000000;stroke-width:3;stroke-linecap:butt;stroke-linejoin:round;stroke-miterlimit:4;stroke-dasharray:none;stroke-opacity:1"
       d="m 401.52688,123.61919 0,42.78933 -1.92992,0 0,-42.7604 z"
       id="path4242"
       inkscape:connector-curvature="0"
       sodipodi:nodetypes="ccccc" />
    <ellipse
       cx="359.98984"
       cy="138.36859"
       rx="1.7449238"
       ry="3.7233043"
       id="ellipse4244"
       style="opacity:1;fill:#ffffff;fill-opacity:1;stroke:none;stroke-width:0.5;stroke-linecap:round;stroke-linejoin:round;stroke-miterlimit:4;stroke-dasharray:none;stroke-dashoffset:0;stroke-opacity:1" />
    <path
       inkscape:connector-curvature="0"
       d="m 703.88565,220.92949 -7.815,-18.866 -20.23,1.012 c -3.873,-5.146 -8.385,-9.644 -13.417,-13.42 l 0.038,-0.043 1.06,-20.318 -18.859,-7.822 -13.63,15.107 -0.008,0.031 c -6.229,-0.883 -12.619,-0.933 -18.988,-0.025 l -13.629,-15.122 -18.867,7.815 1.055,20.32 c -5.152,3.873 -9.627,8.422 -13.403,13.46 l -0.038,-0.021 -20.317,-1.045 -7.799,18.853 15.103,13.616 0.038,0.021 c -0.731,5.835 -1.035,12.658 -0.133,19.038 l -15.208,13.662 7.812,18.87 20.414,-1.086 c 3.868,5.144 8.472,9.613 13.495,13.385 l 0.013,0.025 -1.03,20.312 20.668,7.815 15.437,-15.111 0,-0.033 c 4,0.731 10.818,0.935 17.193,0.04 l 12.729,15.114 18.42,-7.813 -1.286,-20.324 c 5.144,-3.875 9.521,-8.424 13.297,-13.456 l -0.023,0.011 20.287,1.047 7.802,-18.864 -15.121,-13.624 -0.033,-0.019 c 0.877,-6.222 0.852,-12.58 -0.05,-18.953 l 15.023,-13.589 z m -69.326,54.501 c -17.359,7.19 -37.27,-1.053 -44.462,-18.421 -7.196,-17.364 1.047,-37.272 18.415,-44.465 17.371,-7.192 37.274,1.053 44.471,18.417 7.187,17.371 -1.06,37.275 -18.424,44.469 z"
       id="path4240-2" />
    <path
       d="M 230.64062 253.91992 L 227.58008 262.33594 C 224.77598 263.0608 222.12915 264.07737 219.69531 265.51758 L 219.68359 265.45312 L 211.42188 261.49609 L 204.92969 267.97656 L 208.86133 276.23047 L 208.87305 276.24023 C 207.43284 278.67382 206.00611 281.31946 205.28125 284.12305 L 196.35156 287.18164 L 196.35156 296.36523 L 205.28125 299.42773 C 206.00611 302.23235 207.27829 304.87815 208.71875 307.3125 L 208.7832 307.32422 L 204.89258 315.58398 L 211.4043 322.07812 L 219.67383 318.14648 L 219.69141 318.13477 C 222.12576 319.57292 224.77402 320.91644 227.57812 321.64258 L 230.64062 330.49023 L 239.82422 330.49023 L 241.14258 326.68164 L 228.96875 311.46484 A 3.0003 3.0003 0 0 1 231.31055 306.5918 L 238.31055 306.5918 L 238.31055 303.69922 C 237.32538 303.95273 236.29681 304.10156 235.23242 304.10156 C 228.42385 304.10156 222.9043 298.5852 222.9043 291.77539 C 222.9043 284.96702 228.42385 279.44531 235.23242 279.44531 C 241.97988 279.44531 247.45164 284.86892 247.55078 291.5918 L 261.31055 291.5918 A 3.0003 3.0003 0 0 1 264.31055 294.5918 L 264.31055 300.43945 C 264.4031 300.10229 264.50133 299.76965 264.58984 299.42773 L 272.92383 296.36523 L 272.92383 287.18164 L 264.58789 284.12109 C 263.86201 281.31749 262.8884 278.67017 261.44922 276.23633 L 261.5332 276.22656 L 265.5 267.96484 L 259.02539 261.4707 L 250.77148 265.40234 L 250.76367 265.41406 C 248.32983 263.97487 245.68692 263.06105 242.88281 262.33594 L 239.82422 253.91992 L 230.64062 253.91992 z M 246.10156 297.5918 C 245.6125 298.50352 245.00412 299.33952 244.31055 300.0957 L 244.31055 309.5918 A 3.0003 3.0003 0 0 1 241.31055 312.5918 L 237.55469 312.5918 L 244.41992 321.17383 C 246.65617 320.43822 248.7858 319.42107 250.76953 318.24805 L 250.7832 318.20312 L 257.89258 321.5625 L 264.46484 313.3457 L 264.10547 312.5918 L 261.31055 312.5918 A 3.0003 3.0003 0 0 1 258.31055 309.5918 L 258.31055 297.5918 L 246.10156 297.5918 z "
       id="path4238-3" />
    <path
       inkscape:connector-curvature="0"
       id="path4256"
       d="m 241.31128,294.59171 20,0 0,15 10,0 -20,25 -20,-25 10,0 z"
       style="fill:#000000;fill-rule:evenodd;stroke:#000000;stroke-width:1px;stroke-linecap:butt;stroke-linejoin:round;stroke-opacity:1" />
    <path
       d="m 355.71178,253.91934 -3.06054,8.41797 c -2.8041,0.72486 -5.45093,1.73947 -7.88477,3.17968 l -0.0117,-0.0625 -8.26172,-3.95703 -6.49218,6.47852 3.93164,8.25586 0.0117,0.01 c -1.4402,2.43359 -2.86693,5.07727 -3.59179,7.88086 l -8.92969,3.06055 0,9.18359 8.92969,3.06055 c 0.72486,2.80462 1.99899,5.45042 3.43945,7.88477 l 0.0625,0.0117 -3.89062,8.25976 6.51172,6.49414 8.26953,-3.93164 0.0176,-0.0117 c 2.43435,1.43815 5.08261,2.78167 7.88672,3.50781 l 3.0625,8.84766 7.67188,0 0,-7.89844 -7,0 a 3.0003,3.0003 0 0 1 -2.34375,-4.87304 l 12.04687,-15.0586 c -1.72512,0.91822 -3.69033,1.44336 -5.78125,1.44336 -6.80857,0 -12.33007,-5.51831 -12.33007,-12.32812 0,-6.80837 5.5215,-12.32813 12.33007,-12.32813 6.8094,0 12.32813,5.51976 12.32813,12.32813 0,1.13337 -0.16688,2.22525 -0.45313,3.26757 l 1.85938,-2.32421 a 3.0003,3.0003 0 0 1 2.33008,-1.12696 3.0003,3.0003 0 0 1 2.35547,1.12696 l 9.34179,11.67773 c 0.64191,-1.59122 1.14781,-3.2443 1.59375,-4.9668 l 8.33399,-3.0625 0,-9.18359 -8.33399,-3.06055 c -0.72588,-2.8036 -1.70144,-5.45288 -3.14062,-7.88672 l 0.084,-0.01 3.9668,-8.26172 -6.47461,-6.49414 -8.25195,3.93164 -0.01,0.0117 c -2.43384,-1.43919 -5.07675,-2.35302 -7.88086,-3.07813 l -3.05859,-8.41601 -9.1836,0 z m 20.66992,45.47461 -13.75585,17.19726 3.75781,0 a 3.0003,3.0003 0 0 1 3,3 l 0,1.61524 c 2.27524,-0.73761 4.44189,-1.76739 6.45703,-2.95899 l 0.0137,-0.0449 7.5293,3.5586 0,-2.16993 a 3.0003,3.0003 0 0 1 3,-3 l 3.23437,0 0.28907,-0.28906 -13.5254,-16.9082 z"
       id="path4273"
       inkscape:connector-curvature="0" />
    <path
       style="fill:#000000;fill-rule:evenodd;stroke:#000000;stroke-width:1px;stroke-linecap:butt;stroke-linejoin:round;stroke-opacity:1"
       d="m 366.38272,334.5915 20,0 0,-15 10,0 -20,-25 -20,25 10,0 z"
       id="path4277"
       inkscape:connector-curvature="0" />
    <g
       transform="translate(107.56128,186.3347)"
       id="g4287">
      <path
         inkscape:connector-curvature="0"
         d="m 165.36194,248.42224 0,-9.18369 -8.33447,-3.0608 c -0.72588,-2.8036 -1.69973,-5.45122 -3.13891,-7.88506 l 0.0835,-0.0108 3.96681,-8.26175 -6.47517,-6.4929 -8.25276,3.93109 -0.008,0.0116 c -2.43384,-1.43919 -5.07684,-2.35265 -7.88095,-3.07776 l -3.059,-8.41695 -9.18318,0 -3.06106,8.41746 c -2.8041,0.72486 -5.4507,1.74059 -7.88454,3.1808 l -0.0123,-0.0637 -8.26073,-3.95679 -6.492896,6.48005 3.931096,8.25429 0.0129,0.01 c -1.440212,2.43359 -2.867319,5.07839 -3.592178,7.88198 l -8.929565,3.05926 0,9.18369 8.929822,3.06106 c 0.724859,2.80462 1.997538,5.45019 3.438001,7.88454 l 0.064,0.0116 -3.892034,8.26021 6.511914,6.49418 8.27074,-3.93083 0.0167,-0.0118 c 2.43435,1.43815 5.083,2.78175 7.88711,3.50789 l 3.06311,8.8476 9.18318,0 3.06157,-8.84734 c 2.80411,-0.72614 5.44968,-1.95643 7.88352,-3.39561 l 0.0128,-0.045 8.26123,3.9036 6.49238,-6.50754 -3.93109,-8.2692 -0.0118,-0.0157 c 1.43918,-2.4341 2.27016,-5.08147 2.99605,-7.88532 l 8.33421,-3.06234 z m -37.6901,7.73642 c -6.80857,0 -12.32816,-5.51814 -12.32816,-12.32795 0,-6.80837 5.51959,-12.32858 12.32816,-12.32858 6.8094,0 12.32816,5.52021 12.32816,12.32858 0,6.80981 -5.51876,12.32795 -12.32816,12.32795 z"
         id="path4289"
         sodipodi:nodetypes="ccccccccccccccccccccccccccccccccccccccccccsssss" />
      <path
         style="fill:#000000;fill-rule:evenodd;stroke:#ffffff;stroke-width:6;stroke-linecap:butt;stroke-linejoin:round;stroke-miterlimit:4;stroke-dasharray:none;stroke-opacity:1"
         d="m 133.75,246.64791 20,0 0,15 10,0 -20,25 -20,-25 10,0 z"
         id="path4291"
         inkscape:connector-curvature="0" />
      <path
         inkscape:connector-curvature="0"
         id="path4293"
         d="m 133.75,246.64791 20,0 0,15 10,0 -20,25 -20,-25 10,0 z"
         style="fill:#000000;fill-rule:evenodd;stroke:#000000;stroke-width:1px;stroke-linecap:butt;stroke-linejoin:round;stroke-opacity:1" />
    </g>
    <g
       id="g4295"
       transform="translate(0,138.3909)">
      <path
         sodipodi:nodetypes="ccccccccccccccccccccccccccccccccccccccccccsssss"
         id="path4297"
         d="m 397.81608,296.90175 0,-9.18369 -8.33447,-3.0608 c -0.72588,-2.8036 -1.69973,-5.45122 -3.13891,-7.88506 l 0.0835,-0.0108 3.96681,-8.26175 -6.47517,-6.4929 -8.25276,3.93109 -0.008,0.0116 c -2.43384,-1.43919 -5.07684,-2.35265 -7.88095,-3.07776 l -3.059,-8.41695 -9.18318,0 -3.06106,8.41746 c -2.8041,0.72486 -5.4507,1.74059 -7.88454,3.1808 l -0.0123,-0.0637 -8.26073,-3.95679 -6.4929,6.48005 3.9311,8.25429 0.0129,0.01 c -1.44021,2.43359 -2.86732,5.07839 -3.59218,7.88198 l -8.92956,3.05926 0,9.18369 8.92982,3.06106 c 0.72486,2.80462 1.99754,5.45019 3.438,7.88454 l 0.064,0.0116 -3.89203,8.26021 6.51191,6.49418 8.27074,-3.93083 0.0167,-0.0118 c 2.43435,1.43815 5.083,2.78175 7.88711,3.50789 l 3.06311,8.8476 9.18318,0 3.06157,-8.84734 c 2.80411,-0.72614 5.44968,-1.95643 7.88352,-3.39561 l 0.0128,-0.045 8.26123,3.9036 6.49238,-6.50754 -3.93109,-8.2692 -0.0118,-0.0157 c 1.43918,-2.4341 2.27016,-5.08147 2.99605,-7.88532 l 8.33421,-3.06234 z m -37.6901,7.73642 c -6.80857,0 -12.32816,-5.51814 -12.32816,-12.32795 0,-6.80837 5.51959,-12.32858 12.32816,-12.32858 6.8094,0 12.32816,5.52021 12.32816,12.32858 0,6.80981 -5.51876,12.32795 -12.32816,12.32795 z"
         inkscape:connector-curvature="0" />
      <path
         inkscape:connector-curvature="0"
         id="path4299"
         d="m 366.20414,335.12724 20,0 0,-15 10,0 -20,-25 -20,25 10,0 z"
         style="fill:#000000;fill-rule:evenodd;stroke:#ffffff;stroke-width:6;stroke-linecap:butt;stroke-linejoin:round;stroke-miterlimit:4;stroke-dasharray:none;stroke-opacity:1" />
      <path
         style="fill:#000000;fill-rule:evenodd;stroke:#000000;stroke-width:1px;stroke-linecap:butt;stroke-linejoin:round;stroke-opacity:1"
         d="m 366.20414,335.12724 20,0 0,-15 10,0 -20,-25 -20,25 10,0 z"
         id="path4301"
         inkscape:connector-curvature="0" />
    </g>
  </g>
</svg>
